<?xml version="1.0" encoding="utf-8"?>
<!-- Generator: Adobe Illustrator 21.0.2, SVG Export Plug-In . SVG Version: 6.00 Build 0)  -->
<svg version="1.1" id="Layer_1" xmlns="http://www.w3.org/2000/svg" xmlns:xlink="http://www.w3.org/1999/xlink" x="0px" y="0px"
	 width="164.5px" height="60px" viewBox="0 0 164.5 60" style="enable-background:new 0 0 164.5 60;" xml:space="preserve">
<style type="text/css">
	.st0{fill:#C31F3D;}
</style>
<rect x="69.1" y="14.5" width="6.6" height="45.5"/>
<polygon points="115.3,60 92.8,24.8 92.7,24.8 92.7,60 86.1,60 86.1,14.5 93.3,14.5 115.4,49.1 115.6,49.1 115.6,14.5 122.2,14.5 
	122.2,60 "/>
<polygon points="51.7,14.5 51.7,44 40.6,14.5 40.6,14.5 40.6,14.5 33.6,14.5 33.4,14.5 33.5,14.7 20.3,48.6 7.1,14.5 0,14.5 
	18.3,60 22.3,60 37,23.4 51.7,60 58.4,60 58.4,14.5 "/>
<polygon points="139,34.4 139,14.5 132.3,14.5 132.3,60 139,60 139,38 139,37.1 "/>
<polygon points="164,14.5 156.4,14.5 139.1,37.1 156.4,60 164.5,60 146.8,37.1 "/>
<polygon class="st0" points="75.7,8.3 78.7,0 72.3,0 69.1,8.3 "/>
</svg>
